<svg xmlns="http://www.w3.org/2000/svg" viewBox="0 0 28 30">
  <g transform="translate(6.0,-4.5) scale(0.0206) translate(40,1104)">
    <path d="M300 875V103C279 123 248 134 213 134C116 134 0 52 0 -40C0 -83 31 -131 112 -131C216 -131 325 -46 325 42V875Z" fill="#000000" transform="translate(132.00,0) scale(1,-1)"/>
  </g>
  <g transform="translate(15.9,19.1) scale(0.02931507,0.03913043)">
    <path d="M2 12C31 69 79 115 146 115C191 115 222 97 253 66C273 45 289 15 290 12C291 10 292 8 292 6C292 2 291 0 287 0C286 0 286 0 283 3C281 5 268 22 246 39C227 53 198 69 146 69C94 69 65 53 46 39C24 22 11 5 9 3C6 0 5 0 4 0C1 0 0 5 0 7C0 8 0 9 2 12Z" fill="#000000"/>
  </g>
</svg>
