<svg xmlns="http://www.w3.org/2000/svg" viewBox="-40.00 -1104.00 669.00 1278.00">
  <path d="M325 480C413 434 520 320 520 215C520 171 513 126 498 85C496 80 494 74 494 69C494 64 496 60 501 58C503 57 505 56 506 56C536 60 565 185 565 209C565 237 563 262 560 283C570 321 579 364 579 414C579 439 575 464 568 487C575 515 579 545 579 581C579 633 565 680 531 725C483 787 433 838 395 894C357 949 332 1042 329 1052C328 1059 326 1064 315 1064C303 1064 300 1059 300 1052V101C279 121 248 132 213 132C116 132 0 50 0 -42C0 -85 31 -133 112 -133C216 -133 325 -49 325 40ZM535 552C534 554 532 556 531 558C483 620 401 690 363 745C348 767 340 792 335 814C386 814 451 745 487 698C525 649 535 613 535 552ZM534 365C526 380 517 393 509 404C482 439 452 470 403 519C368 555 343 591 335 640C387 640 452 577 487 531C528 478 535 436 535 397C535 386 535 376 534 365Z" fill="#000000" transform="translate(5.00,0) scale(1,-1)"/>
</svg>
