<svg xmlns="http://www.w3.org/2000/svg" viewBox="-40.00 -1104.00 669.00 1278.00">
  <path d="M325 630C438 576 549 431 549 302C549 230 530 156 504 84C502 78 500 73 500 69C500 63 505 59 511 59C517 59 523 63 527 70C577 159 589 273 589 334C589 463 522 539 510 558C498 577 418 681 391 723C353 780 336 837 335 841C334 844 325 879 325 880C324 884 318 888 313 888C306 888 300 882 300 875V101C279 121 248 132 213 132C116 132 0 50 0 -42C0 -85 31 -133 112 -133C216 -133 325 -48 325 40Z" fill="#000000" transform="translate(0.00,0) scale(1,-1)"/>
</svg>
