<svg xmlns="http://www.w3.org/2000/svg" viewBox="-40.00 -1104.00 669.00 1278.00">
  <path d="M579 405C579 457 565 504 531 549C484 610 433 662 395 717C357 772 332 864 329 875C328 882 326 887 315 887C303 887 300 881 300 875V101C279 121 248 132 213 132C116 132 0 50 0 -42C0 -85 31 -133 112 -133C216 -133 325 -48 325 40V480C414 432 521 318 521 211C521 171 512 121 498 84C496 79 494 74 494 68C494 62 499 56 506 56C513 56 517 64 521 70C539 98 565 152 565 208C565 237 563 261 560 282C570 319 579 356 579 405ZM534 364C526 380 517 392 509 404C482 439 452 470 403 519C369 554 343 591 336 639C387 639 452 570 487 523C527 472 535 431 535 393C535 383 535 373 534 364Z" fill="#000000" transform="translate(5.00,0) scale(1,-1)"/>
</svg>
