<svg xmlns="http://www.w3.org/2000/svg" viewBox="-34.00 -494.00 459.00 1035.00">
  <path d="M230 -166C229 -165 227 -163 224 -159L109 -17C108 -16 107 -13 107 -11C107 -8 108 -4 109 -2L211 152C212 154 213 157 213 159V168C213 171 212 174 210 176L48 395C48 395 44 401 38 401C35 401 33 400 30 398C26 395 25 391 25 388C25 382 28 377 28 377L104 273C106 270 107 266 107 261C107 257 106 252 104 249L3 95C2 93 1 89 1 87V78C1 75 2 72 4 70L116 -69C112 -68 103 -66 91 -66C40 -66 0 -108 0 -159C0 -173 3 -187 11 -198C32 -230 107 -325 107 -325C107 -325 112 -331 119 -331C121 -331 123 -331 125 -329C130 -325 132 -321 132 -317C132 -313 130 -310 129 -308C126 -303 94 -245 94 -245C94 -245 87 -231 87 -213C87 -181 111 -155 143 -155C156 -155 167 -159 175 -164L214 -189C214 -189 218 -191 222 -191C226 -191 229 -190 232 -186C234 -182 235 -180 235 -177C235 -174 234 -172 232 -169Z" fill="#000000" transform="translate(78.00,0) scale(1,-1)"/>
</svg>
