<svg xmlns="http://www.w3.org/2000/svg" viewBox="-34.00 -494.00 459.00 1035.00">
  <path d="M151 49C242 49 279 112 283 119L246 -32C224 -84 186 -151 128 -167C139 -153 142 -137 142 -119C142 -79 110 -53 71 -53C32 -53 0 -83 0 -123C0 -175 44 -200 97 -200C150 -200 192 -171 222 -129L131 -501L158 -507L390 443C391 444 391 446 391 447C391 453 387 457 381 459C380 460 378 460 377 460C371 460 367 456 364 451C345 409 299 350 251 338C263 353 266 368 266 386C266 424 235 453 196 453C157 453 124 423 124 381C124 328 171 308 216 305C220 305 224 305 229 306C278 309 318 337 346 376L307 215C287 165 244 95 188 81C200 96 203 111 203 129C203 169 170 196 131 196C92 196 61 165 61 125C61 78 106 49 151 49Z" fill="#000000" transform="translate(0.00,0) scale(1,-1)"/>
</svg>
