<svg xmlns="http://www.w3.org/2000/svg" viewBox="-34.00 -494.00 459.00 1035.00">
  <path d="M343 186C344 188 344 189 344 191C344 196 341 201 335 203C333 204 331 204 330 204C324 204 320 201 317 196C293 148 253 94 198 80C210 94 215 110 215 128C215 167 180 197 141 197C101 195 72 162 72 123C74 67 128 48 175 48C225 50 264 75 294 114L249 -45C235 -92 178 -157 127 -170C138 -156 144 -139 144 -122C144 -82 110 -53 71 -53C31 -53 1 -87 1 -127C1 -157 22 -182 48 -191C67 -199 84 -201 104 -201C154 -199 193 -174 223 -135L121 -500L148 -507Z" fill="#000000" transform="translate(23.00,0) scale(1,-1)"/>
</svg>
