<svg xmlns="http://www.w3.org/2000/svg" viewBox="-40.00 -402.00 359.00 450.00">
  <path d="M179 185C229 196 279 219 279 279C279 328 235 362 170 362C106 362 56 327 56 281C56 254 73 236 98 236C120 236 137 252 137 273C137 285 132 295 121 304C112 311 112 311 112 314C112 325 133 335 154 335C182 335 199 316 199 285C199 251 176 198 136 198C130 198 126 198 119 201C113 203 110 204 106 204C96 204 89 197 89 186C89 175 96 169 107 169C110 169 116 170 119 171C130 174 130 174 135 174C158 174 169 157 169 126C169 80 151 18 95 18C73 18 51 30 51 42C51 48 53 49 62 52C79 58 88 70 88 88C88 111 72 127 47 127C19 127 0 106 0 75C0 24 43 -8 111 -8C193 -8 253 42 253 108C253 158 221 175 179 185Z" fill="#000000" transform="scale(1,-1)"/>
</svg>
